# xmcd
#
# Track frame offsets: 
#        150
#        14100
#        66507
#        87300
#        107012
#        118450
#        127650
#        156587
#        172362
#        196807
#
# Disc length: 3102 seconds
#
# Revision: 2
# Processed by: cddbd v1.5.2PL0 Copyright (c) Steve Scherf et al.
# Submitted via: ExactAudioCopy v0.99pb4
#
DISCID=960c1c0a
DTITLE=Les Barker - An Infinite Number Of Occasional Tables
DYEAR=1900
DGENRE=Humour
TTITLE0=An Infinite Number Of Occasional Tables
TTITLE1=Jason And The Arguments
TTITLE2=Waste Not, Want Not
TTITLE3=The Hypochondria Kid
TTITLE4=Nobody Hugs A Hedgehog
TTITLE5=I Can't Find My Camouflage Net
TTITLE6=Spot The Eternal Dalmation
TTITLE7=Reg Was A Lonely Glow Worm
TTITLE8=The Dwarf
TTITLE9=Moses
EXTD=
EXTT0=
EXTT1=
EXTT2=
EXTT3=
EXTT4=
EXTT5=
EXTT6=
EXTT7=
EXTT8=
EXTT9=
PLAYORDER=
